<?xml version="1.0" standalone="no"?>
<!DOCTYPE svg PUBLIC "-//W3C//DTD SVG 20010904//EN"
 "http://www.w3.org/TR/2001/REC-SVG-20010904/DTD/svg10.dtd">
<svg version="1.0" xmlns="http://www.w3.org/2000/svg"
 width="2048.000000pt" height="2048.000000pt" viewBox="0 0 2048.000000 2048.000000"
 preserveAspectRatio="xMidYMid meet">

<g transform="translate(0.000000,2048.000000) scale(0.100000,-0.100000)"
fill="#000000" stroke="none">
<path d="M9755 20469 c-3058 -144 -5869 -1638 -7720 -4104 -1493 -1988 -2206
-4477 -2000 -6975 242 -2924 1715 -5580 4080 -7355 2375 -1784 5437 -2439
8363 -1789 2558 568 4817 2120 6283 4316 1552 2326 2082 5173 1473 7916 -568
2558 -2120 4817 -4316 6283 -1821 1215 -3972 1811 -6163 1708z m1055 -2509
c880 -70 1674 -262 2465 -597 221 -94 668 -318 870 -437 1143 -673 2111 -1640
2781 -2781 119 -204 344 -651 437 -870 337 -798 522 -1563 599 -2480 16 -198
16 -912 0 -1110 -77 -916 -262 -1683 -597 -2475 -95 -225 -319 -670 -439 -875
-113 -192 -346 -543 -471 -710 -855 -1137 -1963 -2002 -3250 -2537 -768 -319
-1532 -499 -2415 -570 -202 -16 -898 -16 -1100 0 -883 71 -1647 251 -2415 570
-672 279 -1316 661 -1885 1119 -403 324 -859 780 -1183 1183 -221 276 -477
646 -653 945 -120 205 -344 650 -439 875 -292 689 -484 1420 -564 2145 -39
347 -45 476 -45 885 0 409 6 538 45 885 80 725 273 1458 565 2145 96 227 320
673 438 875 243 413 550 837 876 1210 243 277 661 677 960 918 276 221 646
477 945 653 203 119 650 343 870 437 801 339 1649 542 2490 597 88 6 185 12
215 14 105 7 766 -3 900 -14z"/>
<path d="M6412 14067 l-2572 -2572 0 -1253 0 -1252 2575 0 2575 0 0 -2575 0
-2575 1250 0 1250 0 0 2575 0 2575 2575 0 2575 0 0 1253 0 1252 -2573 2573
-2572 2572 -1255 0 -1255 0 -2573 -2573z m2578 -1767 l0 -810 -812 0 -813 0
810 810 c445 446 811 810 812 810 2 0 3 -364 3 -810z m3315 0 l810 -810 -813
0 -812 0 0 810 c0 446 1 810 3 810 1 0 367 -364 812 -810z"/>
</g>
</svg>
